# xmcd
#
# Track frame offsets: 
#        150
#        26283
#        43399
#        62714
#        82082
#        105277
#        132097
#        150930
#        168816
#        184078
#        205672
#        221418
#
# Disc length: 3225 seconds
#
# Revision: 2
# Processed by: cddbd v1.5.2PL0 Copyright (c) Steve Scherf et al.
# Submitted via: ExactAudioCopy v0.99pb4
#
DISCID=920c970c
DTITLE=Curtis Stigers - Lost In Dreams
DYEAR=2009
DGENRE=Blues
TTITLE0=Cold
TTITLE1=You've Got The Fever
TTITLE2=Medley: Vera and We´ll Meet Again
TTITLE3=The Dreams Of Yesterday
TTITLE4=Jealous Guy
TTITLE5=My Funny Valentine
TTITLE6=Daddy´s Coming Home
TTITLE7=Bye Bye Blackbird
TTITLE8=Reason For Our Love
TTITLE9=Dirty Water
TTITLE10=Feels Right
TTITLE11=In The Wee Small Hours Of The Morning
EXTD=YEAR: 2009
EXTT0=
EXTT1=
EXTT2=
EXTT3=
EXTT4=
EXTT5=
EXTT6=
EXTT7=
EXTT8=
EXTT9=
EXTT10=
EXTT11=
PLAYORDER=
